<svg width="333" height="82" viewBox="0 0 333 82" fill="none" xmlns="http://www.w3.org/2000/svg">
<path d="M112.71 53.7349C110.964 53.7349 109.392 53.4356 107.996 52.8369C106.599 52.2133 105.501 51.3403 104.703 50.2178C103.905 49.0953 103.506 47.7858 103.506 46.2891H108.07C108.17 47.4116 108.607 48.3345 109.38 49.0579C110.178 49.7813 111.288 50.143 112.71 50.143C114.182 50.143 115.329 49.7938 116.152 49.0953C116.975 48.372 117.387 47.449 117.387 46.3265C117.387 45.4535 117.125 44.7426 116.601 44.1938C116.102 43.645 115.466 43.221 114.693 42.9217C113.945 42.6223 112.897 42.2981 111.55 41.9488C109.854 41.4999 108.469 41.0509 107.397 40.6019C106.349 40.1279 105.451 39.4046 104.703 38.4317C103.955 37.4589 103.58 36.1618 103.58 34.5404C103.58 33.0438 103.955 31.7342 104.703 30.6118C105.451 29.4893 106.499 28.6287 107.846 28.03C109.193 27.4314 110.752 27.1321 112.523 27.1321C115.042 27.1321 117.1 27.7681 118.697 29.0403C120.318 30.2875 121.216 32.0086 121.391 34.2037H116.676C116.601 33.2558 116.152 32.4451 115.329 31.7717C114.506 31.0982 113.421 30.7614 112.074 30.7614C110.852 30.7614 109.854 31.0732 109.081 31.6968C108.307 32.3204 107.921 33.2184 107.921 34.3908C107.921 35.189 108.158 35.85 108.632 36.3738C109.13 36.8727 109.754 37.2718 110.502 37.5712C111.251 37.8705 112.273 38.1948 113.571 38.544C115.292 39.0179 116.689 39.4919 117.761 39.9658C118.859 40.4397 119.782 41.1756 120.53 42.1733C121.303 43.1462 121.69 44.4557 121.69 46.102C121.69 47.4241 121.328 48.6713 120.605 49.8437C119.906 51.016 118.871 51.9639 117.499 52.6873C116.152 53.3857 114.556 53.7349 112.71 53.7349ZM131.699 36.3364V47.7484C131.699 48.5216 131.874 49.0829 132.223 49.4321C132.597 49.7564 133.221 49.9185 134.094 49.9185H136.713V53.473H133.346C131.425 53.473 129.953 53.024 128.93 52.126C127.908 51.2281 127.396 49.7688 127.396 47.7484V36.3364H124.964V32.8567H127.396V27.7307H131.699V32.8567H136.713V36.3364H131.699ZM149.587 53.8098C147.641 53.8098 145.883 53.3732 144.311 52.5002C142.74 51.6022 141.505 50.355 140.607 48.7586C139.709 47.1372 139.26 45.2664 139.26 43.1462C139.26 41.0509 139.721 39.1925 140.644 37.5712C141.567 35.9498 142.827 34.7026 144.423 33.8295C146.02 32.9565 147.803 32.52 149.774 32.52C151.744 32.52 153.528 32.9565 155.124 33.8295C156.721 34.7026 157.98 35.9498 158.903 37.5712C159.826 39.1925 160.288 41.0509 160.288 43.1462C160.288 45.2415 159.814 47.0998 158.866 48.7212C157.918 50.3425 156.621 51.6022 154.975 52.5002C153.353 53.3732 151.557 53.8098 149.587 53.8098ZM149.587 50.1056C150.684 50.1056 151.707 49.8437 152.655 49.3198C153.628 48.796 154.413 48.0103 155.012 46.9626C155.611 45.915 155.91 44.6428 155.91 43.1462C155.91 41.6495 155.623 40.3898 155.05 39.3671C154.476 38.3195 153.715 37.5337 152.767 37.0099C151.819 36.4861 150.797 36.2242 149.699 36.2242C148.601 36.2242 147.579 36.4861 146.631 37.0099C145.708 37.5337 144.972 38.3195 144.423 39.3671C143.875 40.3898 143.6 41.6495 143.6 43.1462C143.6 45.3662 144.161 47.0873 145.284 48.3096C146.431 49.5069 147.866 50.1056 149.587 50.1056ZM168.77 35.85C169.393 34.8024 170.217 33.9917 171.239 33.418C172.287 32.8193 173.522 32.52 174.944 32.52V36.9351H173.858C172.187 36.9351 170.915 37.3591 170.042 38.2072C169.194 39.0553 168.77 40.527 168.77 42.6223V53.473H164.504V32.8567H168.77V35.85ZM197.759 42.6598C197.759 43.433 197.71 44.1315 197.61 44.7551H181.858C181.982 46.4014 182.593 47.7234 183.691 48.7212C184.789 49.7189 186.136 50.2178 187.732 50.2178C190.027 50.2178 191.648 49.2575 192.596 47.3368H197.198C196.575 49.2325 195.44 50.7915 193.793 52.0138C192.172 53.2111 190.152 53.8098 187.732 53.8098C185.761 53.8098 183.99 53.3732 182.419 52.5002C180.872 51.6022 179.65 50.355 178.752 48.7586C177.879 47.1372 177.443 45.2664 177.443 43.1462C177.443 41.0259 177.867 39.1676 178.715 37.5712C179.588 35.9498 180.798 34.7026 182.344 33.8295C183.916 32.9565 185.711 32.52 187.732 32.52C189.678 32.52 191.411 32.944 192.933 33.7921C194.454 34.6402 195.639 35.8375 196.487 37.3841C197.335 38.9057 197.759 40.6642 197.759 42.6598ZM193.307 41.3128C193.282 39.7413 192.721 38.4816 191.623 37.5337C190.526 36.5859 189.166 36.1119 187.545 36.1119C186.073 36.1119 184.814 36.5859 183.766 37.5337C182.718 38.4567 182.095 39.7164 181.895 41.3128H193.307ZM210.525 53.7349C208.779 53.7349 207.208 53.4356 205.811 52.8369C204.414 52.2133 203.317 51.3403 202.518 50.2178C201.72 49.0953 201.321 47.7858 201.321 46.2891H205.886C205.986 47.4116 206.422 48.3345 207.195 49.0579C207.994 49.7813 209.104 50.143 210.525 50.143C211.997 50.143 213.145 49.7938 213.968 49.0953C214.791 48.372 215.202 47.449 215.202 46.3265C215.202 45.4535 214.941 44.7426 214.417 44.1938C213.918 43.645 213.282 43.221 212.508 42.9217C211.76 42.6223 210.713 42.2981 209.366 41.9488C207.669 41.4999 206.285 41.0509 205.212 40.6019C204.165 40.1279 203.267 39.4046 202.518 38.4317C201.77 37.4589 201.396 36.1618 201.396 34.5404C201.396 33.0438 201.77 31.7342 202.518 30.6118C203.267 29.4893 204.314 28.6287 205.661 28.03C207.008 27.4314 208.567 27.1321 210.338 27.1321C212.858 27.1321 214.916 27.7681 216.512 29.0403C218.133 30.2875 219.031 32.0086 219.206 34.2037H214.492C214.417 33.2558 213.968 32.4451 213.145 31.7717C212.321 31.0982 211.236 30.7614 209.889 30.7614C208.667 30.7614 207.669 31.0732 206.896 31.6968C206.123 32.3204 205.736 33.2184 205.736 34.3908C205.736 35.189 205.973 35.85 206.447 36.3738C206.946 36.8727 207.57 37.2718 208.318 37.5712C209.066 37.8705 210.089 38.1948 211.386 38.544C213.107 39.0179 214.504 39.4919 215.577 39.9658C216.674 40.4397 217.597 41.1756 218.345 42.1733C219.119 43.1462 219.505 44.4557 219.505 46.102C219.505 47.4241 219.144 48.6713 218.42 49.8437C217.722 51.016 216.687 51.9639 215.315 52.6873C213.968 53.3857 212.371 53.7349 210.525 53.7349ZM228.804 35.8874C229.527 34.9396 230.512 34.1413 231.76 33.4928C233.007 32.8443 234.416 32.52 235.988 32.52C237.784 32.52 239.418 32.969 240.889 33.867C242.386 34.74 243.558 35.9747 244.406 37.5712C245.254 39.1676 245.678 41.001 245.678 43.0713C245.678 45.1417 245.254 47 244.406 48.6463C243.558 50.2677 242.386 51.5399 240.889 52.4628C239.418 53.3608 237.784 53.8098 235.988 53.8098C234.416 53.8098 233.019 53.498 231.797 52.8744C230.575 52.2258 229.577 51.4276 228.804 50.4797V63.2761H224.538V32.8567H228.804V35.8874ZM241.338 43.0713C241.338 41.6495 241.039 40.4273 240.44 39.4045C239.867 38.3569 239.093 37.5712 238.12 37.0473C237.173 36.4986 236.15 36.2242 235.052 36.2242C233.98 36.2242 232.957 36.4986 231.984 37.0473C231.036 37.5961 230.263 38.3943 229.664 39.442C229.091 40.4896 228.804 41.7244 228.804 43.1462C228.804 44.568 229.091 45.8152 229.664 46.8878C230.263 47.9354 231.036 48.7336 231.984 49.2824C232.957 49.8312 233.98 50.1056 235.052 50.1056C236.15 50.1056 237.173 49.8312 238.12 49.2824C239.093 48.7087 239.867 47.8855 240.44 46.8129C241.039 45.7404 241.338 44.4931 241.338 43.0713ZM260.56 32.52C262.132 32.52 263.529 32.8567 264.751 33.5302C265.998 34.2037 266.971 35.2015 267.669 36.5235C268.393 37.8455 268.754 39.442 268.754 41.3128V53.473H264.526V41.9488C264.526 40.103 264.065 38.6936 263.142 37.7208C262.219 36.7231 260.959 36.2242 259.363 36.2242C257.766 36.2242 256.494 36.7231 255.546 37.7208C254.623 38.6936 254.162 40.103 254.162 41.9488V53.473H249.897V25.7851H254.162V35.2514C254.885 34.3783 255.796 33.7048 256.893 33.2309C258.016 32.7569 259.238 32.52 260.56 32.52ZM293.09 42.6598C293.09 43.433 293.04 44.1315 292.941 44.7551H277.188C277.313 46.4014 277.924 47.7234 279.022 48.7212C280.119 49.7189 281.466 50.2178 283.063 50.2178C285.358 50.2178 286.979 49.2575 287.927 47.3368H292.529C291.905 49.2325 290.77 50.7915 289.124 52.0138C287.503 53.2111 285.482 53.8098 283.063 53.8098C281.092 53.8098 279.321 53.3732 277.75 52.5002C276.203 51.6022 274.981 50.355 274.083 48.7586C273.21 47.1372 272.773 45.2664 272.773 43.1462C272.773 41.0259 273.197 39.1676 274.045 37.5712C274.919 35.9498 276.128 34.7026 277.675 33.8295C279.246 32.9565 281.042 32.52 283.063 32.52C285.008 32.52 286.742 32.944 288.264 33.7921C289.785 34.6402 290.97 35.8375 291.818 37.3841C292.666 38.9057 293.09 40.6642 293.09 42.6598ZM288.638 41.3128C288.613 39.7413 288.052 38.4816 286.954 37.5337C285.856 36.5859 284.497 36.1119 282.876 36.1119C281.404 36.1119 280.144 36.5859 279.097 37.5337C278.049 38.4567 277.425 39.7164 277.226 41.3128H288.638ZM301.553 35.85C302.177 34.8024 303 33.9917 304.023 33.418C305.07 32.8193 306.305 32.52 307.727 32.52V36.9351H306.642C304.971 36.9351 303.699 37.3591 302.826 38.2072C301.977 39.0553 301.553 40.527 301.553 42.6223V53.473H297.288V32.8567H301.553V35.85ZM330.543 42.6598C330.543 43.433 330.493 44.1315 330.393 44.7551H314.641C314.766 46.4014 315.377 47.7234 316.475 48.7212C317.572 49.7189 318.919 50.2178 320.515 50.2178C322.81 50.2178 324.432 49.2575 325.38 47.3368H329.982C329.358 49.2325 328.223 50.7915 326.577 52.0138C324.956 53.2111 322.935 53.8098 320.515 53.8098C318.545 53.8098 316.774 53.3732 315.202 52.5002C313.656 51.6022 312.434 50.355 311.536 48.7586C310.663 47.1372 310.226 45.2664 310.226 43.1462C310.226 41.0259 310.65 39.1676 311.498 37.5712C312.371 35.9498 313.581 34.7026 315.128 33.8295C316.699 32.9565 318.495 32.52 320.515 32.52C322.461 32.52 324.195 32.944 325.716 33.7921C327.238 34.6402 328.423 35.8375 329.271 37.3841C330.119 38.9057 330.543 40.6642 330.543 42.6598ZM326.09 41.3128C326.066 39.7413 325.504 38.4816 324.407 37.5337C323.309 36.5859 321.95 36.1119 320.328 36.1119C318.857 36.1119 317.597 36.5859 316.549 37.5337C315.502 38.4567 314.878 39.7164 314.679 41.3128H326.09Z" fill="#7187F9"/>
<rect opacity="0.2" width="74.8323" height="74.8323" rx="37.4161" fill="#C9D2FE"/>
<rect x="32.739" y="31.1801" width="49.8882" height="49.8882" rx="24.9441" fill="#7187F9"/>
</svg>
